<svg width="669" height="618" viewBox="0 0 669 618" fill="none" xmlns="http://www.w3.org/2000/svg">
<rect width="668.515" height="617.743" fill="white"/>
<path d="M485.201 235.396C480.21 233.692 475.184 232.104 470.121 230.633C470.961 227.217 471.735 223.782 472.444 220.326C483.864 164.79 476.397 120.049 450.913 105.32C426.512 91.1876 386.495 105.916 346.126 141.131C342.157 144.606 338.269 148.185 334.462 151.867C331.925 149.421 329.322 147.026 326.654 144.684C284.343 107.029 241.935 91.168 216.48 105.945C192.079 120.107 184.827 162.165 195.105 214.802C196.133 220.008 197.288 225.19 198.569 230.35C192.736 232.004 186.953 233.827 181.225 235.816C131.682 253.141 100 280.304 100 308.472C100 337.577 134.005 366.76 185.666 384.456C189.857 385.881 194.086 387.205 198.355 388.428C196.969 393.953 195.742 399.539 194.675 405.187C184.915 456.917 192.528 497.978 216.88 512.053C242.032 526.586 284.226 511.652 325.356 475.637C328.61 472.787 331.863 469.777 335.116 466.609C339.229 470.584 343.458 474.443 347.805 478.184C387.627 512.521 426.951 526.391 451.264 512.277C476.397 497.695 484.566 453.579 473.957 399.907C473.144 395.807 472.207 391.623 471.146 387.355C474.113 386.476 477.018 385.569 479.862 384.632C533.544 366.8 568.515 337.968 568.515 308.501C568.495 280.196 535.798 252.858 485.201 235.396ZM359.293 156.26C393.874 126.09 426.2 114.183 440.938 122.694C456.623 131.761 462.723 168.323 452.865 216.276C452.214 219.399 451.512 222.513 450.757 225.616C430.12 220.922 409.193 217.61 388.115 215.7C376.047 198.316 362.817 181.767 348.517 166.166C352.018 162.77 355.603 159.468 359.273 156.26H359.293ZM238.333 332.541C242.569 340.739 246.997 348.837 251.617 356.834C256.321 364.994 261.224 373.033 266.326 380.952C251.823 379.375 237.41 377.052 223.146 373.993C227.284 360.602 232.379 346.693 238.333 332.541ZM238.333 285.369C232.477 271.519 227.519 257.894 223.449 244.737C236.82 241.741 251.07 239.291 265.925 237.436C260.948 245.205 256.159 253.089 251.558 261.085C246.958 269.082 242.54 277.177 238.304 285.369H238.333ZM248.972 308.96C255.14 296.096 261.784 283.479 268.902 271.109C276.014 258.746 283.585 246.666 291.615 234.869C305.552 233.815 319.842 233.259 334.277 233.259C348.713 233.259 363.09 233.815 377.017 234.879C384.962 246.65 392.488 258.688 399.593 270.992C406.699 283.297 413.43 295.855 419.787 308.667C413.515 321.577 406.799 334.246 399.642 346.674C392.543 359.037 385.06 371.153 377.193 383.021C363.285 383.997 348.888 384.534 334.248 384.534C319.607 384.534 305.484 384.075 291.829 383.187C283.741 371.351 276.109 359.219 268.932 346.791C261.755 334.363 255.092 321.752 248.943 308.96H248.972ZM416.966 356.698C421.684 348.512 426.213 340.219 430.553 331.819C436.502 345.308 441.754 359.095 446.286 373.124C431.855 376.374 417.262 378.866 402.57 380.591C407.528 372.724 412.327 364.76 416.966 356.698ZM430.358 285.379C426.037 277.148 421.544 269.014 416.879 260.978C412.324 253.053 407.577 245.225 402.638 237.495C417.581 239.388 431.919 241.906 445.359 244.981C441.038 258.69 436.031 272.173 430.358 285.379ZM334.472 180.504C344.218 191.154 353.421 202.288 362.045 213.865C343.598 212.987 325.138 212.987 306.665 213.865C315.771 201.821 325.093 190.645 334.472 180.504ZM226.552 123.289C242.227 114.193 276.886 127.193 313.419 159.666C315.752 161.745 318.104 163.921 320.447 166.176C306.073 181.774 292.75 198.309 280.566 215.671C259.535 217.566 238.649 220.826 218.041 225.431C216.851 220.642 215.777 215.82 214.82 210.966C205.987 165.844 211.834 131.83 226.552 123.289ZM203.703 369.103C199.799 367.99 195.944 366.783 192.137 365.482C169.298 357.674 150.432 347.484 137.48 336.386C125.884 326.441 120.009 316.514 120.009 308.472C120.009 291.382 145.444 269.577 187.862 254.79C193.192 252.936 198.566 251.241 203.986 249.705C210.286 269.951 217.916 289.758 226.826 308.999C217.81 328.505 210.086 348.583 203.703 369.103ZM312.17 460.528C293.986 476.457 275.774 487.749 259.718 493.44C245.292 498.544 233.804 498.691 226.865 494.679C212.088 486.139 205.939 453.159 214.323 408.925C215.318 403.72 216.457 398.514 217.739 393.309C238.553 397.792 259.648 400.854 280.878 402.474C293.182 419.926 306.615 436.554 321.091 452.251C318.182 455.111 315.205 457.863 312.17 460.528ZM335.029 437.864C325.542 427.606 316.074 416.255 306.841 404.055C315.814 404.406 324.949 404.582 334.248 404.582C343.793 404.582 353.241 404.377 362.553 403.957C353.96 415.72 344.773 427.037 335.029 437.864ZM456.564 465.769C453.773 480.839 448.16 490.892 441.221 494.914C426.454 503.483 394.879 492.347 360.835 462.978C356.931 459.62 353.027 456.019 349.054 452.241C363.248 436.483 376.367 419.788 388.32 402.269C409.667 400.46 430.865 397.182 451.762 392.459C452.719 396.325 453.564 400.112 454.3 403.82C458.994 427.538 459.668 448.991 456.564 465.769ZM473.547 365.589C470.99 366.438 468.355 367.258 465.68 368.059C459.128 347.718 451.2 327.845 441.953 308.579C450.853 289.57 458.471 269.986 464.753 249.959C469.545 251.354 474.201 252.818 478.681 254.37C522.036 269.323 548.487 291.46 548.487 308.472C548.487 326.626 519.918 350.187 473.547 365.589Z" fill="#3857FF"/>
</svg>
