<svg width="939" height="283" viewBox="0 0 939 283" fill="none" xmlns="http://www.w3.org/2000/svg">
<path fill-rule="evenodd" clip-rule="evenodd" d="M62.789 25.75C38.198 39.909 18.061 51.771 18.039 52.109C18.001 52.707 150.384 128.994 151.46 128.994C151.757 128.994 152 105.206 152 76.131V23.268L131.717 11.631C120.562 5.231 110.549 -0.00299871 109.467 1.289e-06C108.385 0.00300129 87.38 11.59 62.789 25.75ZM157.667 27.66C157.3 28.027 157 51.583 157 80.006C157 127.986 157.125 131.791 158.75 133.182C160.416 134.608 202.8 158.994 203.612 158.994C203.825 158.994 204 135.246 204 106.22V53.446L184.25 42.02C173.387 35.736 163.113 29.784 161.417 28.794C159.721 27.804 158.034 27.294 157.667 27.66ZM15.241 111.101L15.5 164.207L37.838 177.101C50.124 184.192 60.366 189.994 60.597 189.994C60.828 189.994 60.901 166.061 60.759 136.808L60.5 83.623L38.5 70.859C26.4 63.839 16.159 58.072 15.741 58.044C15.324 58.017 15.099 81.892 15.241 111.101ZM67.241 140.988L67.5 194.204L88 206.102C99.275 212.647 109.196 217.841 110.046 217.644C111.332 217.348 192.475 170.958 199.825 166.317C202.062 164.905 199.629 163.403 135.858 126.807C99.397 105.884 68.985 88.542 68.274 88.269C67.226 87.867 67.031 97.827 67.241 140.988ZM500.654 120.559C493.211 127.711 481.92 135.064 473.018 138.557L466 141.31V146.671C466 152.018 466.007 152.03 468.75 151.35C470.262 150.975 474.354 149.391 477.843 147.831C481.332 146.271 484.369 144.994 484.593 144.994C484.817 144.994 485 146.569 485 148.494V151.994H511H537V148.043V144.093L544.25 147.496C548.237 149.368 552.737 151.194 554.25 151.555C556.973 152.204 557 152.162 557 147.166V142.121L547.572 137.655C536.301 132.316 530.591 128.506 522.275 120.779C516.487 115.4 515.714 114.994 511.248 114.994C506.781 114.994 506.042 115.382 500.654 120.559ZM287 123.994V131.994H280H273V136.994V141.994H279C283.629 141.994 285 142.332 285 143.473C285 146.312 279.796 160.545 276.411 166.961C273.332 172.799 273.004 174.21 273.041 181.461L273.081 189.494L275.887 186.216C277.43 184.412 280.549 179.237 282.817 174.716L286.94 166.494L286.97 186.744L287 206.994H291.5H296V184.299V161.604L300.623 168.299C303.165 171.981 305.64 174.994 306.123 174.994C306.605 174.994 307 172.069 307 168.494V161.994H315.526H324.051L322.629 164.744C319.697 170.413 312.128 179.73 306.659 184.402C301.232 189.039 301 189.434 301 194.056C301 196.707 301.394 199.119 301.875 199.417C302.729 199.944 308.371 196.249 313.598 191.739C315.029 190.504 318.844 185.994 322.075 181.716L327.95 173.937L328.225 190.216L328.5 206.494L333.25 206.799L338 207.104V189.853V172.602L340.842 177.048C342.406 179.493 345.298 183.41 347.27 185.752C351.152 190.363 360.877 198.994 362.19 198.994C362.636 198.994 363 196.47 363 193.384C363 187.868 362.904 187.681 357.215 182.134C351.961 177.011 344.922 167.56 343.392 163.573C342.865 162.199 344.096 161.994 352.893 161.994H363V157.494V152.994H350.5H338V145.994V138.994H349.555H361.11L360.805 134.244L360.5 129.494L349.25 129.211L338 128.928V122.406V115.884L333.25 116.189L328.5 116.494L328.202 122.744L327.905 128.994H323.88H319.856L320.551 123.43L321.246 117.867L316.92 118.18L312.594 118.494L310.047 128.494C308.081 136.213 307.429 137.753 307.187 135.244C306.875 132.014 306.839 131.994 301.437 131.994H296V123.994V115.994H291.5H287V123.994ZM421 122.994V129.994H395H369V134.494V138.994H394.91H420.82L421.49 147.744C424.139 182.373 430.603 199.835 442.766 205.215C447.86 207.468 451.681 206.986 457.25 203.388C460.949 200.999 461 200.877 461 194.48C461 190.913 460.722 187.994 460.382 187.994C460.042 187.994 458.234 189.337 456.364 190.98C449.293 197.188 444.998 195.814 440.075 185.771C436.137 177.736 433.238 164.327 432.378 150.161L431.699 138.994H444.35C456.333 138.994 457 138.889 457 136.994C457 135.894 457.45 134.994 458 134.994C459.703 134.994 459.116 131.582 456.177 124.396L453.353 117.494L448.677 117.189C445.971 117.013 444 117.313 444 117.902C444 118.462 444.9 121.203 446 123.994C447.1 126.785 448 129.276 448 129.531C448 129.786 444.4 129.994 440 129.994H432V122.994V115.994H426.5H421V122.994ZM579 121.994V127.994H571H563V132.967V137.941L577.554 138.217L592.107 138.494L588.812 143.494C584.681 149.762 570.814 164.328 566.354 167.084C563.16 169.058 563 169.44 563 175.076C563 178.923 563.409 180.994 564.168 180.994C564.811 180.994 568.401 178.759 572.145 176.026L578.954 171.058L579.227 188.776L579.5 206.494L584.229 206.798L588.958 207.102L589.229 186.989L589.5 166.876L597.5 172.909C601.9 176.227 606.085 178.954 606.8 178.968C607.752 178.987 608.019 177.468 607.8 173.295L607.5 167.596L600.273 162.484C596.298 159.673 592.77 157.097 592.432 156.76C592.095 156.423 593.6 153.75 595.777 150.821C602.727 141.465 605.158 136.48 604.814 132.298L604.5 128.494L596.75 128.202L589 127.91V121.952V115.994H584H579V121.994ZM622 128.494V139.994H613H604V144.994V149.994H613H622V171.994V193.994H609.5H597V198.994V203.994H625H653V198.994V193.994H642.5H632V171.994V149.994H641.5H651V144.994V139.994H641.5H632V128.494V116.994H627H622V128.494ZM731.553 121.191C726.586 143.558 721.319 155.36 711.696 165.683C701.646 176.464 686.939 184.944 670.24 189.587L664 191.322V196.737V202.153L667.25 201.476C679.955 198.83 700.051 189.701 710.304 181.919C717.731 176.281 726.02 166.611 730.813 157.994C736.177 148.35 740.932 133.241 741.284 124.723L741.5 119.494L736.782 119.191C732.555 118.919 732.012 119.126 731.553 121.191ZM857.679 122.648C857.306 123.022 857 125.502 857 128.161V132.994H888C908.836 132.994 919 133.336 919 134.036C919 137.448 915.496 151.076 913.401 155.814C905.83 172.933 889.627 184.178 863.879 190.183L855 192.254V197.263V202.273L859.75 201.692C872.208 200.17 894.143 191.78 902.731 185.252L906.997 182.01L915.553 188.337C923.561 194.258 935.461 200.994 937.914 200.994C938.563 200.994 939 198.789 939 195.514C939 190.073 938.97 190.019 934.75 187.874C930.271 185.596 921.095 179.424 917.176 176.053L914.852 174.054L917.314 170.774C924.45 161.267 928.738 147.38 929.2 132.278L929.5 122.494L893.929 122.232C874.365 122.087 858.053 122.275 857.679 122.648ZM527.989 138.633L534.479 142.994H511.084H487.69L493.616 139.164C496.875 137.057 502.153 132.895 505.345 129.914L511.148 124.494L516.324 129.383C519.171 132.071 524.42 136.234 527.989 138.633ZM328 145.994V152.994H315.969C305.726 152.994 303.843 153.239 303.306 154.639C302.851 155.825 301.759 154.502 299.386 149.889C297.577 146.372 296.075 143.156 296.049 142.744C296.022 142.332 298.256 141.994 301.013 141.994H306.027L304.513 145.616C303.681 147.608 303 149.408 303 149.616C303 149.824 305.195 149.994 307.879 149.994C313.12 149.994 312.837 150.283 315.948 141.744C316.877 139.197 317.358 138.994 322.475 138.994H328V145.994ZM371 157.994V162.994H380.5H390V177.865V192.736L382.75 193.409C368.531 194.729 368.857 194.574 369.2 199.85L369.5 204.464L374 204.182C388.4 203.278 419.774 198.427 421.733 196.8C423.197 195.586 423.449 189.39 422.07 188.537C421.559 188.221 416.946 188.643 411.82 189.474C406.694 190.306 401.938 190.988 401.25 190.99C400.309 190.993 400 187.537 400 177.03V163.066L409.75 162.78C419.129 162.505 419.513 162.404 419.833 160.142C420.016 158.849 419.895 156.711 419.564 155.392L418.962 152.994H394.981H371V157.994ZM761.197 158.232L761.5 163.494H800.5H839.5V158.494V153.494L800.197 153.232L760.895 152.971L761.197 158.232ZM468.667 161.661C468.3 162.027 468 164.277 468 166.661V170.994H480.448H492.895L488.12 181.744L483.345 192.494L476.422 192.994L469.5 193.494L469.186 197.88C469.013 200.292 469.269 202.663 469.755 203.149C470.697 204.091 517.791 201.666 531.416 199.975C535.769 199.434 539.383 199.105 539.445 199.243C543.201 207.516 542.63 206.994 547.925 206.994C550.651 206.994 553.194 206.49 553.575 205.873C553.956 205.257 550.945 198.169 546.884 190.123L539.5 175.494L533.75 175.194C530.587 175.029 528 175.269 528 175.727C528 176.185 529.572 179.52 531.493 183.138L534.986 189.716L529.243 190.347C526.084 190.694 517.236 191.28 509.58 191.649C497.803 192.217 495.747 192.103 496.219 190.907C496.526 190.13 498.691 185.332 501.031 180.244L505.285 170.994H530.142H555V166.601C555 163.518 554.528 162.027 553.418 161.601C551.253 160.77 469.5 160.828 468.667 161.661Z" fill="white"/>
<g clip-path="url(#clip0_1_31)">
<path d="M0 281.004V235.204L7 235.004L36 275.004V235.004H41L40.89 281.004H34L5 241.004V281.004H0Z" fill="white"/>
<path d="M67 235.004V240.004C67 240.004 75 239.004 78.76 241.994C81.38 244.084 81.6 248.564 81.98 258.354C82.34 267.724 82.41 272.604 80.39 274.674C78.13 277.004 74.02 277.134 66.95 277.164H65.11C59.66 277.164 57.07 276.914 55.18 275.334C52.13 272.774 51.97 266.524 51.97 258.164C51.97 249.804 52.12 244.534 55.16 242.014C56.6 240.824 58.93 240.154 62 240.004V235.004C62 235.004 61.27 234.974 61 235.004C57.2 235.204 54.48 235.944 52 238.004C47 242.144 47 249.274 47 258.004C47 266.734 47 274.824 52 279.004C55.64 282.054 60.12 282.034 67 282.004C74.36 281.974 80.16 281.944 84 278.004C87.59 274.314 87.39 268.214 87 258.004C86.6 247.504 86.57 241.424 82 238.004C78 235.004 73.93 235.004 67 235.004Z" fill="white"/>
<path d="M93 281.004V235.004C103.33 235.004 108.95 235.084 119.28 235.084C122.24 235.224 125.81 235.774 127.96 237.554C129.09 238.494 130.63 240.994 131 241.794C132.16 244.344 132.08 245.774 132 248.014C131.91 250.634 131.81 253.344 130 256.014C129.7 256.464 128.73 257.814 127 259.014C125.59 259.994 124 261.014 122 261.014C122 261.014 124.78 264.004 126 266.014C127.79 268.954 128.7 270.414 129 271.014L133 279.014C133.55 280.114 134 281.014 134 281.014H127C126.55 279.284 125.91 277.244 125 275.014C124.42 273.594 123.56 271.514 122 269.014C120.81 267.104 119.83 265.564 118 264.014C117.58 263.664 115 262.014 115 262.014H102V257.014C111.91 256.864 114.87 256.904 116.6 257.014C116.73 257.014 117.72 257.044 118.22 257.014C120.76 256.854 123.33 255.524 124 255.014C124.72 254.464 125.4 253.944 126 253.014C127.24 251.084 127.04 248.984 127 248.014C126.9 245.684 126.45 243.134 124.57 241.724C122.59 240.244 118.85 240.034 116.66 240.014H97.99V281.014C97.99 281.014 94.51 281.554 92.99 281.014L93 281.004Z" fill="white"/>
<path d="M175.96 235.434H136.15V240.804H152.99V281.454H158.87V240.804H175.96V235.434Z" fill="white"/>
<path d="M213.07 235.104V254.274H185.93V235.104H180.05V281.734H185.93V260.144H213.07V281.734H218.94V235.104H213.07Z" fill="white"/>
</g>
<defs>
<clipPath id="clip0_1_31">
<rect width="218.94" height="47.02" fill="white" transform="translate(0 234.994)"/>
</clipPath>
</defs>
</svg>
